<svg width="20" height="20" viewBox="0 0 20 20" fill="none" xmlns="http://www.w3.org/2000/svg">
<path d="M10 0.25C4.62402 0.25 0.25 4.62402 0.25 10C0.25 15.376 4.62402 19.75 10 19.75C15.376 19.75 19.75 15.376 19.75 10C19.75 4.62402 15.376 0.25 10 0.25ZM10 1.75C14.5645 1.75 18.25 5.43555 18.25 10C18.25 14.5645 14.5645 18.25 10 18.25C5.43555 18.25 1.75 14.5645 1.75 10C1.75 5.43555 5.43555 1.75 10 1.75ZM10 4.65625L5.19531 9.46094L6.25 10.5391L9.25 7.53906V15.25H10.75V7.53906L13.75 10.5391L14.8047 9.46094L10 4.65625Z" fill="#748873"/>
</svg>
